<?xml version="1.0" encoding="UTF-8"?>
<svg xmlns="http://www.w3.org/2000/svg" version="1.1" xmlns:cc="http://creativecommons.org/ns#" xmlns:dc="http://purl.org/dc/elements/1.1/" xmlns:inkscape="http://www.inkscape.org/namespaces/inkscape" xmlns:rdf="http://www.w3.org/1999/02/22-rdf-syntax-ns#" xmlns:sodipodi="http://sodipodi.sourceforge.net/DTD/sodipodi-0.dtd" xmlns:svg="http://www.w3.org/2000/svg" viewBox="0 0 253 60">
  <defs>
    <style>
      .cls-1 {
        fill: #222651;
      }

      .cls-2 {
        fill: #d50032;
      }
    </style>
  </defs>
  <!-- Generator: Adobe Illustrator 28.7.1, SVG Export Plug-In . SVG Version: 1.2.0 Build 142)  -->
  <g>
    <g id="Layer_1">
      <rect id="rect4-8" class="cls-2" x="15.1" y="17.2" width="30.1" height="5.3"/>
      <rect id="rect6-5" class="cls-2" x="15.1" y="27.8" width="30.1" height="5.3"/>
      <rect id="rect8-1" class="cls-2" x="15.1" y="38.5" width="30.1" height="5.3"/>
      <path id="path10-0" class="cls-1" d="M46.4,43.8c-4,5-10.2,8.2-17.1,8.2-12.1,0-22-9.8-22-22S17.2,8,29.3,8s13.8,3.6,17.8,9.1h6.6c-4.6-8.8-13.8-14.8-24.5-14.8C14.1,2.4,1.7,14.8,1.7,30s12.4,27.6,27.6,27.6,19.2-5.6,24-13.9h-6.8Z" inkscape:connector-curvature="0"/>
      <path id="path12-6" class="cls-1" d="M49.9,22.5c.6,1.7,1,3.5,1.2,5.4h5.7c-.1-1.8-.5-3.6-1-5.4h-5.9Z" inkscape:connector-curvature="0"/>
      <path id="path14-57" class="cls-1" d="M56.8,33.1h-5.7c-.3,1.9-.8,3.7-1.5,5.4h6c.6-1.7,1-3.5,1.1-5.4Z" inkscape:connector-curvature="0"/>
      <path id="path20-2" class="cls-1" d="M79.9,41.6c-1,1.3-2.6,2.2-5,2.2s-4-1-5-2.2c-1.7-2.1-1.9-4.9-1.9-11s.2-8.9,1.9-11c1-1.3,2.6-2.2,5-2.2s4,1,5,2.2c1.8,2,1.9,4.9,1.9,11s-.1,9-1.9,11ZM76.8,22c-.4-.6-1-1-2-1s-1.6.4-1.9,1c-.8,1.2-.9,3.9-.9,8.6s.1,7.3.9,8.6c.4.6,1,1,1.9,1s1.6-.4,2-1c.8-1.2.9-3.9.9-8.6s-.1-7.3-.9-8.6Z" inkscape:connector-curvature="0"/>
      <path id="path22-7" class="cls-1" d="M100.8,43.5l-3.4-10.6h-2.3v10.6h-4.1v-25.9h6.5c4.7,0,6.6,2.3,6.6,7.6s-.6,5.5-3,6.8l3.9,11.5h-4.2ZM97.7,21.3h-2.5v7.9h2.5c2.2,0,2.5-1.8,2.5-4s-.3-4-2.5-4Z" inkscape:connector-curvature="0"/>
      <path id="path24-1" class="cls-1" d="M125.7,41.4c-1,1.2-2.5,2.1-5,2.1h-6.6v-25.9h6.6c2.5,0,4,1,5,2.1,1.8,1.9,1.9,4.8,1.9,10.8s-.1,8.9-1.9,10.8ZM122.7,22.4c-.4-.6-1.1-1-2.1-1h-2.4v18.5h2.4c1,0,1.7-.4,2.1-1,.8-1.2.9-3.7.9-8.2s0-7-.9-8.2h0Z" inkscape:connector-curvature="0"/>
      <path id="path26-2" class="cls-1" d="M137,43.5v-25.9h10.9v3.7h-6.8v7.3h5.9v3.7h-5.9v7.5h6.8v3.7h-10.9Z" inkscape:connector-curvature="0"/>
      <path id="path28-9" class="cls-1" d="M166.8,43.5l-3.4-10.6h-2.3v10.6h-4.1v-25.9h6.5c4.7,0,6.6,2.3,6.6,7.6s-.6,5.5-3,6.8l3.9,11.5h-4.2ZM163.6,21.3h-2.5v7.9h2.5c2.2,0,2.5-1.8,2.5-4s-.3-4-2.5-4Z" inkscape:connector-curvature="0"/>
      <path id="path30-5" class="cls-2" d="M189.7,43.7h-9.4v-26.3h9.4v2.3h-6.9v9.6h5.9v2.3h-5.9v9.7h6.9v2.3Z" inkscape:connector-curvature="0"/>
      <path id="path34-7" class="cls-2" d="M210.7,43.7h-2.7l-1.4-7.1h-5.7l-1.4,7.1h-2.8v-.2c0,0,5.9-26,5.9-26h2.3l5.8,26.3ZM201.4,34.3h4.7l-2.4-11.8-2.3,11.8Z" inkscape:connector-curvature="0"/>
      <path id="path38-5" class="cls-2" d="M223.7,44c-1.8,0-3.3-.5-4.2-1.4-1.2-1.2-1.6-2.6-1.6-5.5v-.2h2.6v.2c0,2.1.2,3,1,3.7.5.5,1.3.8,2.3.8s1.8-.3,2.3-.8c.8-.9,1-2,1-4,0-3.3-.5-4.3-2.6-5.1l-2.8-1.1c-2.7-1.1-3.5-2.7-3.5-6.7s.6-4.1,1.9-5.3c1-1,2.3-1.4,3.9-1.4s3.1.5,4,1.5,1.6,3,1.6,5.2v.2h-2.6v-.2c0-1.7-.2-2.6-.9-3.4-.5-.6-1.2-.9-2.2-.9s-1.6.3-2.1.8-1.1,1.9-1.1,3.6c0,3,.4,3.7,2.7,4.6l2.8,1.1c2.9,1.2,3.5,3.3,3.5,7.1s-.5,4.6-1.7,5.8c-.9,1-2.4,1.5-4.2,1.5h0Z" inkscape:connector-curvature="0"/>
      <path id="path42-9" class="cls-2" d="M248.4,43.7h-9.4v-26.3h9.4v2.3h-6.9v9.6h5.9v2.3h-5.9v9.7h6.9v2.3Z" inkscape:connector-curvature="0"/>
    </g>
  </g>
</svg>